HIERARCHY
ROOT pelvis
{
  OFFSET 0 100 0
  CHANNELS 6 Xposition Yposition Zposition Zrotation Xrotation Yrotation
  JOINT pelvis_right_femur
  {
    OFFSET -10.78128 -3.44521 -0.5502486
    CHANNELS 3 Zrotation Xrotation Yrotation
    JOINT right_femur_tibia
    {
      OFFSET -0.8047443 -44.0398 -0.1307829
      CHANNELS 3 Zrotation Xrotation Yrotation
      JOINT right_tibia_foot
      {
        OFFSET 3.006224 -47.83518 -5
        CHANNELS 3 Zrotation Xrotation Yrotation
        End Site
        {
          OFFSET 0 -5 15
        }
      }
    }
  }
  JOINT pelvis_left_femur
  {
    OFFSET 10.78128 -3.44521 -0.5502486
    CHANNELS 3 Zrotation Xrotation Yrotation
    JOINT left_femur_tibia
    {
      OFFSET 0.8047443 -44.0398 -0.1307829
      CHANNELS 3 Zrotation Xrotation Yrotation
      JOINT left_tibia_foot
      {
        OFFSET -4.370144 -48.10324 -4.275266
        CHANNELS 3 Zrotation Xrotation Yrotation
        End Site
        {
          OFFSET 0 -5 15
        }
      }
    }
  }
  JOINT pelvis_spine1
  {
    OFFSET 0 6.468898 -3.129235
    CHANNELS 3 Zrotation Xrotation Yrotation
    JOINT spine1
    {
      OFFSET 0 23.15396 4.99043
      CHANNELS 3 Zrotation Xrotation Yrotation
      JOINT spine2
      {
        OFFSET 0 20.79997 -5.064912
        CHANNELS 3 Zrotation Xrotation Yrotation
        JOINT neck
        {
          OFFSET 0 14.38658 9.616178
          CHANNELS 3 Zrotation Xrotation Yrotation
          End Site
          {
            OFFSET 0 20 0
          }
        }
      }
      JOINT right_manubrium
      {
        OFFSET -5.722621 16.35077 3.967754
        CHANNELS 3 Zrotation Xrotation Yrotation
        JOINT right_clavicle
        {
          OFFSET -13.16364 1.694482 -4.693211
          CHANNELS 3 Zrotation Xrotation Yrotation
          JOINT right_humerus
          {
            OFFSET -28.5034 -0.3100689 -2.792744
            CHANNELS 3 Zrotation Xrotation Yrotation
            JOINT right_radius
            {
              OFFSET -25.15693 0.02248979 -1.271978
              CHANNELS 3 Zrotation Xrotation Yrotation
              End Site
              {
                OFFSET -15 0 0
              }
            }
          }
        }
      }
      JOINT left_manubrium
      {
        OFFSET 5.722621 16.35077 3.967754
        CHANNELS 3 Zrotation Xrotation Yrotation
        JOINT left_clavicle
        {
          OFFSET 13.16364 1.694482 -4.693211
          CHANNELS 3 Zrotation Xrotation Yrotation
          JOINT left_humerus
          {
            OFFSET 29.39168 -1.063119 -2.237045
            CHANNELS 3 Zrotation Xrotation Yrotation
            JOINT left_radius
            {
              OFFSET 24.59957 -0.9528479 0.9047498
              CHANNELS 3 Zrotation Xrotation Yrotation
              End Site
              {
                OFFSET 15 -0 -0
              }
            }
          }
        }
      }
    }
  }
}
MOTION
Frames: 19
Frame Time: 0.0416666666667
859.4286 99.89437 3082.868 5.02609 -5.550769 23.78317 -0.3670417 9.066529 6.173916 -0 51.81119 -0 4.427307 3.52528 -4.882152 -5.034732 -11.81301 -7.453206 -0 22.49862 -0 -3.154613 -10.26768 18.14195 -3.0462 -1.856398 3.05698 -1.64018 11.00423 -4.792911 0.6142714 22.0004 8.906365 8.724767 -17.18351 5.3512 6.695404 -17.78323 11.65049 81.58439 31.40612 -11.24518 -0 0 18.01424 -25.14689 8.747865 11.34375 10.09232 -22.60045 -4.752156 -91.02832 11.0136 15.93255 0 0 -3.161576 15.23341 16.68233 -9.485481
862.8873 101.3003 3088.166 4.875695 -5.851895 24.93078 0.1136709 2.48531 5.182836 -0 55.77583 -0 3.883234 3.282676 -5.7502 -5.565722 -6.485852 -8.211025 -0 20.99182 -0 -3.24134 -11.76726 17.56547 -3.181096 -1.90382 2.798688 -1.332497 10.99364 -5.389234 0.4275158 21.60704 9.124928 8.899616 -17.66879 5.253011 6.720713 -17.54675 11.76436 81.94112 31.29524 -12.31821 -0 0 17.8591 -24.98254 8.887249 10.85466 10.69484 -23.3205 -4.625212 -90.26875 10.56964 14.47958 0 0 -5.36221 15.99126 16.34404 -10.84666
866.0372 102.4241 3093.06 4.616202 -6.00765 26.18751 0.3370698 -4.436508 4.288723 -0 54.62045 -0 2.908025 2.023001 -6.469022 -5.60349 -1.444738 -8.580643 -0 18.56762 -0 -3.047173 -13.25114 17.16328 -3.332723 -1.948833 2.477968 -0.9502904 10.86567 -6.069931 0.2276562 21.14083 9.372053 9.043529 -18.28559 5.196551 6.66757 -17.25009 11.85636 82.31385 31.18785 -13.44367 -0 0 17.67691 -24.78543 9.084936 10.36162 11.44094 -24.07506 -4.319089 -89.36383 10.06968 12.70116 0 0 -8.035957 16.84537 15.95775 -12.42092
869.0046 102.9444 3097.813 4.539243 -6.150979 27.39417 0.2732043 -10.88651 3.653836 -0 48.90914 -0 2.016251 0.9242048 -7.322152 -5.370469 3.433942 -8.491618 -0 16.19276 -0 -2.7202 -14.73438 16.5941 -3.48964 -1.993213 2.117364 -0.5196626 10.59533 -6.775438 0.03023595 20.62875 9.631835 9.135125 -18.99091 5.196366 6.523379 -16.92045 11.91145 82.65015 31.10161 -14.49337 -0 0 17.49859 -24.57616 9.329505 9.93848 12.28708 -24.78617 -3.815779 -88.38346 9.533878 10.73245 0 0 -11.00034 17.7229 15.54665 -14.07682
871.9193 102.7736 3102.665 4.626741 -6.168046 28.42498 0.06041746 -16.33763 2.997482 -0 40.13553 -0 1.470887 0.08078833 -8.166342 -5.125509 8.083145 -8.199119 -0 14.5303 -0 -2.925196 -16.41678 15.65658 -3.636705 -2.030724 1.740587 -0.07779751 10.1863 -7.436077 -0.1435574 20.11439 9.886781 9.159949 -19.72521 5.267422 6.300165 -16.58032 11.92338 82.9077 31.05184 -15.35306 -0 0 17.33099 -24.36973 9.606189 9.647779 13.15783 -25.36863 -3.139843 -87.4068 9.010855 8.735306 0 0 -13.99655 18.54531 15.15463 -15.65954
874.8683 102.0352 3107.769 4.653375 -5.83978 29.22474 -0.1042535 -20.59413 2.271541 -0 30.34906 -0 1.351683 -0.6446357 -8.774405 -5.009984 12.15393 -7.946528 -0 13.92311 -0 -3.798984 -18.16102 14.53207 -3.756918 -2.047957 1.372947 0.3313205 9.681085 -7.983007 -0.2710107 19.65439 10.11825 9.115688 -20.41625 5.417246 6.036086 -16.24755 11.8971 83.06488 31.04534 -15.9456 -0 0 17.15739 -24.17355 9.895395 9.52282 13.94986 -25.74991 -2.369282 -86.51435 8.572295 6.886367 0 0 -16.71267 19.23916 14.83823 -17.01087
877.8929 100.963 3113.188 4.44649 -5.156349 29.8153 -0.006229121 -23.6364 1.742285 -0 21.61685 -0 1.536884 -1.164148 -9.053557 -5.000843 15.30505 -7.802428 -0 14.58752 -0 -4.907401 -19.45446 13.53402 -3.834599 -2.028798 1.041555 0.6653522 9.157732 -8.363346 -0.3339986 19.30808 10.30629 9.013446 -20.99036 5.637493 5.784546 -15.93641 11.84631 83.12855 31.07665 -16.2498 -0 0 16.94672 -23.98749 10.17355 9.552867 14.55317 -25.89287 -1.624611 -85.7776 8.295761 5.351711 0 0 -18.8441 19.74716 14.65001 -17.99799
881.0022 99.80805 3118.933 4.032461 -4.404721 30.26107 0.4849226 -25.38583 1.672802 -0 15.4161 -0 1.775732 -1.416911 -9.075645 -4.970131 17.43722 -7.722305 -0 16.74491 -0 -5.898223 -19.77114 12.82263 -3.859661 -1.962114 0.7727512 0.8937783 8.706846 -8.553408 -0.3248596 19.12074 10.43169 8.873492 -21.39032 5.901608 5.593729 -15.65895 11.78679 83.1303 31.1307 -16.30114 -0 0 16.67182 -23.80782 10.41747 9.685781 14.88676 -25.80765 -1.030354 -85.24805 8.238564 4.252076 0 0 -20.17721 20.03684 14.6199 -18.54321
884.1855 98.80237 3124.992 3.582346 -3.958718 30.60204 1.35154 -25.65392 2.14939 -0 12.3166 -0 1.889186 -1.587742 -9.021318 -4.794399 18.64016 -7.630209 -0 20.58905 -0 -6.781139 -18.85883 12.40384 -3.831132 -1.848688 0.5870924 1.004279 8.398767 -8.561377 -0.2489532 19.1083 10.48125 8.718114 -21.59023 6.172066 5.48877 -15.42675 11.72991 83.10862 31.19021 -16.16757 -0 0 16.32995 -23.63475 10.60928 9.853825 14.92757 -25.543 -0.6691123 -84.95039 8.414645 3.639484 0 0 -20.64759 20.10382 14.74468 -18.63928
887.4119 98.15189 3131.334 3.282179 -4.059042 30.81135 2.463912 -24.30162 3.096719 -0 12.11053 -0 1.828783 -1.988274 -9.063149 -4.43392 18.98551 -7.474748 -0 26.18832 -0 -7.662527 -16.82256 12.32949 -3.757222 -1.701794 0.4949084 1.001564 8.262555 -8.41714 -0.1218206 19.25487 10.45277 8.565814 -21.59727 6.413397 5.468273 -15.25164 11.68066 83.08892 31.2426 -15.91487 -0 0 15.94975 -23.47792 10.73848 10.0059 14.71047 -25.16219 -0.5602227 -84.8834 8.7907 3.500898 0 0 -20.33093 19.96833 14.99279 -18.33964
890.627 98.01645 3137.872 3.247601 -4.7465 30.81517 3.646216 -21.43676 4.302733 -0 14.0672 -0 1.556653 -2.804278 -9.231241 -3.949251 18.35164 -7.277848 -0 33.36101 -0 -8.471672 -14.11628 12.76938 -3.651493 -1.541187 0.4958808 0.9003881 8.288597 -8.156658 0.03737503 19.52467 10.35496 8.428877 -21.43991 6.602225 5.514392 -15.14455 11.63947 83.0757 31.28264 -15.58428 -0 0 15.57956 -23.35449 10.80105 10.12305 14.30166 -24.72001 -0.6728003 -85.02854 9.304496 3.784553 0 0 -19.37719 19.66512 15.32062 -17.72878
893.7697 98.4597 3144.442 3.492296 -5.849425 30.55726 4.689186 -17.43987 5.432223 -0 16.97448 -0 1.022365 -3.97236 -9.340536 -3.472677 16.33852 -7.13094 -0 41.45879 -0 -9.028042 -11.43596 13.7814 -3.527933 -1.386214 0.5826669 0.7181808 8.445487 -7.810659 0.2116967 19.87782 10.20238 8.313548 -21.15287 6.729211 5.605516 -15.11396 11.60485 83.05748 31.31149 -15.19022 -0 0 15.26977 -23.28253 10.79747 10.21309 13.76894 -24.25216 -0.953377 -85.36104 9.889722 4.42977 0 0 -17.9407 19.23123 15.68828 -16.89063
896.8063 99.39061 3150.837 3.928649 -6.970857 30.05743 5.338402 -12.74171 6.169583 -0 19.2307 -0 0.3786135 -5.318353 -9.093767 -3.130355 12.40123 -7.080052 -0 49.15869 -0 -9.26892 -9.397035 15.07223 -3.397849 -1.252186 0.7450716 0.4712221 8.694989 -7.401157 0.3888974 20.27987 10.01025 8.221103 -20.7677 6.795533 5.723005 -15.16497 11.57451 83.01574 31.33445 -14.72936 -0 0 15.06104 -23.27495 10.73114 10.29724 13.16618 -23.77645 -1.346002 -85.85702 10.49144 5.383171 0 0 -16.14582 18.69775 16.06665 -15.89089
899.7457 100.5528 3156.898 4.414761 -7.668901 29.40539 5.40866 -7.641373 6.442009 -0 19.55798 -0 0.04069424 -6.772326 -8.352431 -2.909027 6.411269 -7.000121 -0 54.64506 -0 -9.285749 -8.207714 16.22424 -3.26896 -1.149365 0.9719785 0.1743703 8.998816 -6.943178 0.5611289 20.70429 9.791806 8.148777 -20.31033 6.808685 5.851442 -15.29817 11.54527 82.93241 31.3585 -14.19117 -0 0 14.97873 -23.33686 10.60772 10.39961 12.53163 -23.29893 -1.799933 -86.49358 11.06968 6.597996 0 0 -14.08846 18.08829 16.43645 -14.77538
902.6128 101.6049 3162.608 4.828594 -7.842692 28.69162 5.009096 -2.417005 6.403116 -0 17.94662 -0 0.2512789 -8.338828 -7.297422 -2.590214 -0.7885841 -6.666864 -0 56.37477 -0 -9.177912 -7.731139 17.18154 -3.146092 -1.083223 1.251072 -0.1574378 9.320488 -6.448925 0.7231873 21.13067 9.558363 8.091142 -19.80285 6.779158 5.976523 -15.50855 11.5131 82.7947 31.38973 -13.56695 -0 0 15.03174 -23.46593 10.43504 10.54113 11.89314 -22.82139 -2.270763 -87.24413 11.59554 8.023986 0 0 -11.85527 17.4231 16.7834 -13.57949
905.4273 102.2546 3168.064 5.0771 -7.772594 27.95575 4.517875 2.584338 6.177444 -0 15.52353 -0 0.7342322 -9.979488 -6.232553 -1.929187 -7.799731 -5.983732 -0 53.87707 -0 -8.977709 -7.759717 18.20268 -3.032963 -1.055875 1.567682 -0.5073443 9.627229 -5.933428 0.8700156 21.54048 9.321243 8.043014 -19.26734 6.717368 6.084936 -15.78551 11.47451 82.59797 31.43128 -12.85939 -0 0 15.21561 -23.65439 10.22298 10.73514 11.27559 -22.34991 -2.720708 -88.07294 12.04416 9.596903 0 0 -9.544086 16.72645 17.0932 -12.343
908.2185 102.3613 3173.381 5.05313 -7.661814 27.19291 4.234167 7.060952 5.76 -0 13.44134 -0 0.9918633 -11.63748 -5.252407 -0.9236328 -13.70571 -5.099589 -0 47.91321 -0 -8.673977 -8.064744 19.34362 -2.933795 -1.067585 1.904076 -0.8559215 9.89416 -5.419016 0.9949322 21.91381 9.093531 8.002988 -18.72846 6.631098 6.167555 -16.11361 11.42894 82.34752 31.48226 -12.09164 -0 0 15.51631 -23.89053 9.98337 10.98281 10.70531 -21.90153 -3.121442 -88.93277 12.39074 11.23441 0 0 -7.272083 16.03244 17.34963 -11.12093
911.0449 101.9561 3178.649 4.675398 -7.388152 26.39502 4.15023 10.81314 5.166551 -0 12.24789 -0 0.8285412 -13.22064 -4.21909 0.1746294 -18.3684 -4.27275 -0 40.04546 -0 -8.248479 -8.340278 20.30277 -2.853209 -1.116564 2.24036 -1.18306 10.10921 -4.934553 1.090283 22.23085 8.889456 7.974861 -18.21207 6.524701 6.223143 -16.4732 11.38022 82.05959 31.53789 -11.31001 -0 0 15.91037 -24.15885 9.729424 11.27048 10.20774 -21.50386 -3.459022 -89.76855 12.61434 12.84231 0 0 -5.164397 15.38347 17.53756 -9.98094
913.9891 101.1868 3183.949 3.997729 -6.748728 25.59236 4.040294 13.73554 4.543929 -0 12.06833 -0 0.4937931 -14.51027 -3.022985 1.051797 -21.94528 -3.682914 -0 32.02999 -0 -7.726993 -8.345228 20.76651 -2.794763 -1.197698 2.556934 -1.471333 10.27468 -4.509809 1.149937 22.47648 8.721537 7.965809 -17.7414 6.400226 6.258881 -16.84151 11.33578 81.75963 31.59078 -10.5767 -0 0 16.36415 -24.44004 9.475097 11.57125 9.801538 -21.18771 -3.735728 -90.5265 12.70586 14.32843 0 0 -3.331809 14.82164 17.64785 -8.989193
